/* XPM */
static char *torch_0[] = {
"16 24 5 1",
"  c None",
"o c #8B5A2B",
". c #5A3A1B",
"* c #FFA500",
"+ c #FFD700",
"                ",
"        +       ",
"       +*+      ",
"       ***      ",
"      +***+     ",
"       ***      ",
"       +*+      ",
"         +      ",
"                ",
"        .       ",
"        o       ",
"        o       ",
"        o       ",
"        o       ",
"        o       ",
"        o       ",
"        o       ",
"        o       ",
"        o       ",
"        o       ",
"        o       ",
"        o       ",
"                ",
"                "
};


