/* XPM */
static char * west_xpm[] = {
"16 16 4 1",
" 	c #000000",
".	c #505050",
"X	c #909090",
"o	c #D0D0D0",
"                ",
"  XXooXXooXXoo  ",
" XXooXXooXXooXX ",
"ooXXooXXooXXooXX",
"ooXXooXXooXXooXX",
" XXooXXooXXooXX ",
"  XXooXXooXXoo  ",
"  XXooXXooXXoo  ",
" XXooXXooXXooXX ",
"ooXXooXXooXXooXX",
"ooXXooXXooXXooXX",
" XXooXXooXXooXX ",
"  XXooXXooXXoo  ",
"  XXooXXooXXoo  ",
" XXooXXooXXooXX ",
"ooXXooXXooXXooXX",
"                "
};
