/* XPM */
static char *wood_planks_xpm[] = {
"32 32 3 1",
"c c #C49A6C",
"b c #8B5A2B",
". c #A97B50",
"ccccbbbb....ccccbbbb....ccccbbbb",
"ccccbbbb....ccccbbbb....ccccbbbb",
"ccccbbbb....ccccbbbb....ccccbbbb",
"ccccbbbb....ccccbbbb....ccccbbbb",
"ccccbbbb....ccccbbbb....ccccbbbb",
"ccccbbbb....ccccbbbb....ccccbbbb",
"ccccbbbb....ccccbbbb....ccccbbbb",
"ccccbbbb....ccccbbbb....ccccbbbb",
"....ccccbbbb....ccccbbbb....cccc",
"....ccccbbbb....ccccbbbb....cccc",
"....ccccbbbb....ccccbbbb....cccc",
"....ccccbbbb....ccccbbbb....cccc",
"bbbb....ccccbbbb....ccccbbbb....",
"bbbb....ccccbbbb....ccccbbbb....",
"bbbb....ccccbbbb....ccccbbbb....",
"bbbb....ccccbbbb....ccccbbbb....",
"ccccbbbb....ccccbbbb....ccccbbbb",
"ccccbbbb....ccccbbbb....ccccbbbb",
"ccccbbbb....ccccbbbb....ccccbbbb",
"ccccbbbb....ccccbbbb....ccccbbbb",
"....ccccbbbb....ccccbbbb....cccc",
"....ccccbbbb....ccccbbbb....cccc",
"....ccccbbbb....ccccbbbb....cccc",
"....ccccbbbb....ccccbbbb....cccc",
"bbbb....ccccbbbb....ccccbbbb....",
"bbbb....ccccbbbb....ccccbbbb....",
"bbbb....ccccbbbb....ccccbbbb....",
"bbbb....ccccbbbb....ccccbbbb....",
"ccccbbbb....ccccbbbb....ccccbbbb",
"ccccbbbb....ccccbbbb....ccccbbbb",
"ccccbbbb....ccccbbbb....ccccbbbb",
"ccccbbbb....ccccbbbb....ccccbbbb"
};


